C:\Users\febre\Documents\GitHub\PredSim-workshop-bcn-2024\S4. Modelling neuromusculoskeletal deficits\Code\Results\BCN_CP1\BCN_CP1_v1.mot
version=1
nRows=11
nColumns=29
inDegrees=yes
endheader
                time	         pelvis_tilt	           pelvis_tx	           pelvis_ty	       hip_flexion_l	       hip_flexion_r	        knee_angle_l	        knee_angle_r	       ankle_angle_l	       ankle_angle_r	    lumbar_extension	hamstrings_r/activation	bifemsh_r/activation	glut_max_r/activation	iliopsoas_r/activation	rect_fem_r/activation	  vasti_r/activation	gastroc_r/activation	 soleus_r/activation	tib_ant_r/activation	hamstrings_l/activation	bifemsh_l/activation	glut_max_l/activation	iliopsoas_l/activation	rect_fem_l/activation	  vasti_l/activation	gastroc_l/activation	 soleus_l/activation	tib_ant_l/activation	
          0.53934041	         -7.00946342	          0.69458364	          0.90754678	         30.08715583	        -12.26221013	        -17.31179659	        -12.51255816	          8.13064259	        -12.15306817	          2.27662664	          0.07231993	          0.15876387	          0.06905569	          0.15562467	          0.35683883	          0.05967584	          0.09068262	          0.10293360	          0.22955635	          0.10742901	          0.05000822	          0.21059691	          0.05000112	          0.05000288	          0.37022079	          0.05000166	          0.05000186	          0.32331150	
          0.55012722	         -7.14138169	          0.70980486	          0.90962317	         29.29197874	        -12.73151454	        -17.39324600	        -11.84111828	          8.14659822	        -11.68086772	          2.62716165	          0.08523924	          0.13475452	          0.06299262	          0.15042297	          0.34024129	          0.05058262	          0.07686415	          0.08724819	          0.22508141	          0.10097514	          0.05000733	          0.19056749	          0.05000099	          0.05000293	          0.35890672	          0.05000164	          0.05000193	          0.31769604	
          0.56091403	         -7.27179247	          0.72455113	          0.91202394	         28.40931220	        -13.10707966	        -17.28032649	        -11.01318223	          8.24448293	        -10.96369319	          2.92318856	          0.09636667	          0.11423010	          0.06955952	          0.17310447	          0.31732143	          0.05000110	          0.06515140	          0.07395299	          0.21529318	          0.09944393	          0.05000593	          0.17428685	          0.05000089	          0.05000301	          0.33185674	          0.05000162	          0.05000216	          0.30518196	
          0.57170084	         -7.39853866	          0.73886922	          0.91465149	         27.46433041	        -13.37624891	        -17.02215505	        -10.10161695	          8.39132313	        -10.05651412	          3.16826209	          0.08216367	          0.09682755	          0.07831072	          0.18896134	          0.29465791	          0.05000134	          0.05522354	          0.06268379	          0.20223459	          0.10027648	          0.05000526	          0.16494620	          0.05000080	          0.05000283	          0.29928840	          0.05000154	          0.05000237	          0.29056716	
          0.58248765	         -7.51978327	          0.75281518	          0.91739624	         26.47771439	        -13.54229753	        -16.66054373	         -9.13912153	          8.55523877	         -9.07288362	          3.36724904	          0.06964482	          0.08207521	          0.08650222	          0.20485154	          0.27395794	          0.05000165	          0.05000066	          0.05313190	          0.18569117	          0.10086406	          0.05000458	          0.15914896	          0.05000076	          0.05000306	          0.26813293	          0.05000146	          0.05000253	          0.27624418	
          0.59327445	         -7.63400141	          0.76644204	          0.92015472	         25.46407593	        -13.61380545	        -16.22724170	         -8.13331768	          8.71541646	         -8.12628695	          3.52484685	          0.05903322	          0.06957077	          0.09089314	          0.21685472	          0.25401312	          0.05000200	          0.05000063	          0.05000034	          0.18118808	          0.10152647	          0.05000417	          0.15572965	          0.05000073	          0.05000333	          0.24163096	          0.05000137	          0.05000264	          0.26365030	
          0.60406126	         -7.74000686	          0.77979014	          0.92283884	         24.43303040	        -13.59128421	        -15.74429912	         -7.10132509	          8.86018999	         -7.27583034	          3.64445563	          0.05003903	          0.05897261	          0.09216645	          0.22430179	          0.23621714	          0.05000280	          0.05000057	          0.05000043	          0.18034565	          0.10207425	          0.05000390	          0.15306051	          0.05000071	          0.05000354	          0.22079669	          0.05000130	          0.05000286	          0.25299160	
          0.61484807	         -7.83693210	          0.79288841	          0.92537855	         23.39037427	        -13.46804622	        -15.22623902	         -6.07613686	          8.98632030	         -6.49668076	          3.72838587	          0.05000237	          0.05000841	          0.08721432	          0.22942072	          0.22132840	          0.05001011	          0.05000061	          0.05000051	          0.18047650	          0.10154555	          0.05000367	          0.14919842	          0.05000071	          0.05000436	          0.20499227	          0.05000127	          0.05000337	          0.24419063	
          0.62563488	         -7.92424376	          0.80575747	          0.92772240	         22.33930218	        -13.23209547	        -14.68209135	         -5.10309186	          9.09595973	         -5.75689193	          3.77828780	          0.05000236	          0.05000766	          0.07426921	          0.23020073	          0.20896964	          0.05910980	          0.05000061	          0.05000053	          0.18246305	          0.10105580	          0.05000355	          0.14880607	          0.05000069	          0.05000457	          0.19326508	          0.05000126	          0.05000431	          0.23670024	
          0.63642169	         -8.00183423	          0.81842013	          0.92983539	         21.27885185	        -12.88182527	        -14.11341303	         -4.19676836	          9.19317657	         -5.04617012	          3.79662271	          0.05000197	          0.05000738	          0.06295821	          0.22770839	          0.19958672	          0.06980027	          0.05000062	          0.05000055	          0.18478464	          0.10007930	          0.05000346	          0.14614616	          0.05000069	          0.05000508	          0.18401609	          0.05000130	          0.05073051	          0.22993698	
          0.64720850	         -8.06966773	          0.83089908	          0.93169598	         20.20843273	        -12.42512717	        -13.52219191	         -3.34641963	          9.28030252	         -4.35758338	          3.78593476	          0.05000170	          0.05000712	          0.05337297	          0.22357666	          0.19284932	          0.07949998	          0.05000062	          0.05000056	          0.18729829	          0.09808265	          0.05000343	          0.14380066	          0.05000067	          0.05000545	          0.17586549	          0.05000137	          0.05445707	          0.22548126	
